<?xml version="1.0" encoding="UTF-8" standalone="no"?>
<!DOCTYPE svg PUBLIC "-//W3C//DTD SVG 1.1//EN" "http://www.w3.org/Graphics/SVG/1.1/DTD/svg11.dtd">
<svg version="1.1" xmlns="http://www.w3.org/2000/svg" xmlns:xlink="http://www.w3.org/1999/xlink" preserveAspectRatio="xMidYMid meet" viewBox="0 0 363.69 512" width="363.69" height="512"><defs><path d="M57.45 0L57.45 22.8L78.56 22.8L78.56 0L101.63 0L101.63 69.04L78.56 69.04L78.56 45.92L57.45 45.92L57.45 69.04L34.37 69.04L34.37 0L34.37 0L57.45 0Z" id="b1r2JTEdY"></path><path d="M111.67 22.9L111.67 0L175.39 0L175.39 22.9L155.06 22.9L155.06 69.04L131.98 69.04L131.98 22.9L131.98 22.9L111.67 22.9Z" id="d18YTNXRcg"></path><path d="M209.56 0L224.36 24.26L239.15 0L263.22 0L263.22 69.04L240.24 69.04L240.24 34.82L224.36 59.37L223.97 59.37L208.08 34.82L208.08 69.04L185.5 69.04L185.5 0L209.56 0Z" id="a3F8VoiSf6"></path><path d="M297.79 0L297.79 46.22L330.24 46.22L330.24 69.04L274.71 69.04L274.71 0L297.79 0Z" id="caGTTjCuy"></path><path d="M0 99.3L363.69 99.3L330.54 470.76L181.76 512L33.11 470.73L0 99.3Z" id="b8tFmosaIz"></path><path d="M181.84 480.45L302.15 447.1L330.5 129.66L181.84 129.66L181.84 480.45Z" id="a18gRvHgZW"></path><path d="M80.03 312.98L237.92 312.98L232.62 372.07L181.79 385.81L131.04 372.09L127.65 334.15L81.92 334.15L88.46 407.28L181.77 433.2L275.21 407.28L287.73 267.43L121.69 267.43L117.53 220.78L291.72 220.78L291.86 220.78L295.94 175.22L67.75 175.22L80.03 312.98Z" id="a3dklr2Dgq"></path><path d="M67.75 175.22L80.03 312.98L181.84 312.98L181.84 267.43L121.69 267.43L117.53 220.78L181.84 220.78L181.84 175.22L67.75 175.22Z" id="aXpqrn5sD"></path><path d="M181.79 385.81L131.04 372.09L127.65 334.15L81.92 334.15L88.46 407.28L181.77 433.2L181.84 433.18L181.84 385.79L181.79 385.81Z" id="a1eLyBGyfe"></path></defs><g><g><g><use xlink:href="#b1r2JTEdY" opacity="1" fill="#000000" fill-opacity="1"></use><g><use xlink:href="#b1r2JTEdY" opacity="1" fill-opacity="0" stroke="#000000" stroke-width="1" stroke-opacity="0"></use></g></g><g><use xlink:href="#d18YTNXRcg" opacity="1" fill="#000000" fill-opacity="1"></use><g><use xlink:href="#d18YTNXRcg" opacity="1" fill-opacity="0" stroke="#000000" stroke-width="1" stroke-opacity="0"></use></g></g><g><use xlink:href="#a3F8VoiSf6" opacity="1" fill="#000000" fill-opacity="1"></use><g><use xlink:href="#a3F8VoiSf6" opacity="1" fill-opacity="0" stroke="#000000" stroke-width="1" stroke-opacity="0"></use></g></g><g><use xlink:href="#caGTTjCuy" opacity="1" fill="#000000" fill-opacity="1"></use><g><use xlink:href="#caGTTjCuy" opacity="1" fill-opacity="0" stroke="#000000" stroke-width="1" stroke-opacity="0"></use></g></g><g><use xlink:href="#b8tFmosaIz" opacity="1" fill="#e34e26" fill-opacity="1"></use><g><use xlink:href="#b8tFmosaIz" opacity="1" fill-opacity="0" stroke="#000000" stroke-width="1" stroke-opacity="0"></use></g></g><g><use xlink:href="#a18gRvHgZW" opacity="1" fill="#ef662a" fill-opacity="1"></use><g><use xlink:href="#a18gRvHgZW" opacity="1" fill-opacity="0" stroke="#000000" stroke-width="1" stroke-opacity="0"></use></g></g><g><use xlink:href="#a3dklr2Dgq" opacity="1" fill="#ffffff" fill-opacity="1"></use><g><use xlink:href="#a3dklr2Dgq" opacity="1" fill-opacity="0" stroke="#000000" stroke-width="1" stroke-opacity="0"></use></g></g><g><use xlink:href="#aXpqrn5sD" opacity="1" fill="#ebebeb" fill-opacity="1"></use><g><use xlink:href="#aXpqrn5sD" opacity="1" fill-opacity="0" stroke="#000000" stroke-width="1" stroke-opacity="0"></use></g></g><g><use xlink:href="#a1eLyBGyfe" opacity="1" fill="#ebebeb" fill-opacity="1"></use><g><use xlink:href="#a1eLyBGyfe" opacity="1" fill-opacity="0" stroke="#000000" stroke-width="1" stroke-opacity="0"></use></g></g></g></g></svg>