<?xml version="1.0" encoding="UTF-8"?>
<!DOCTYPE svg PUBLIC "-//W3C//DTD SVG 1.1//EN" "http://www.w3.org/Graphics/SVG/1.1/DTD/svg11.dtd">
<!-- Creator: CorelDRAW 2018 (64-Bit) -->
<svg xmlns="http://www.w3.org/2000/svg" xml:space="preserve" width="500mm" height="500mm" version="1.1" style="shape-rendering:geometricPrecision; text-rendering:geometricPrecision; image-rendering:optimizeQuality; fill-rule:evenodd; clip-rule:evenodd"
viewBox="0 0 50000 50000"
 xmlns:xlink="http://www.w3.org/1999/xlink">
 <defs>
  <style type="text/css">
   <![CDATA[
    .fil0 {fill:black;fill-rule:nonzero}
   ]]>
  </style>
 </defs>
 <g id="Слой_x0020_1">
  <metadata id="CorelCorpID_0Corel-Layer"/>
  <path class="fil0" d="M33778.89 19053.56c-99.24,-95.46 -102.3,-253.3 -6.84,-352.54 95.46,-99.24 253.3,-102.3 352.54,-6.84 2572.11,2482.82 4014.04,5875.45 4014.04,9450.36 0,7253.54 -5880.25,13133.79 -13133.79,13133.79 -7253.54,0 -13133.79,-5880.25 -13133.79,-13133.79 0,-3574.96 1441.97,-6967.59 4014.12,-9450.43 236.37,-227.36 582.06,132.03 345.7,359.38 -2475.59,2389.64 -3859.82,5650.63 -3859.82,9091.05 0,6977.48 5656.31,12633.79 12633.79,12633.79 6977.48,0 12633.79,-5656.31 12633.79,-12633.79 0,-3440.38 -1384.19,-6701.36 -3859.74,-9090.98zm-8559.42 18122.61l0 1189.93c0,328.84 -500,328.84 -500,0l0 -1234.03c0,-383.85 23.49,-355.48 -213.19,-673.84 -746.27,-1003.81 -1726.33,-1330.54 -2453.54,-1572.8 -528.65,-176.12 -941.73,-313.73 -1133.54,-641.75l-619.54 -1059.45c-156.35,-267.35 -207.69,-236.07 -510.18,-130.54 -349.58,121.94 -688.6,35.95 -928.56,-248.45 -324.25,-384.33 -646.65,-771.38 -973.57,-1153.32 -405.55,-473.99 -413.82,-483.67 -87.54,-1236.04 112.05,-258.36 272.58,-544.67 465.26,-843.78l-3395.85 1355.01c-304.47,120.75 -488.02,-342.18 -183.6,-462.9l4103.12 -1637.22c618.6,-818.9 1355.78,-1656.6 2113.69,-2344.96l-0.94 -644.53c-468.12,-526.18 -884.05,-1163 -1226.43,-1912.73 -217.22,-475.67 -310.49,-846.68 -380.64,-1125.77 -75.52,-300.45 -89.07,-434.93 -366.22,-611.41 -503.82,-320.86 -959.82,-1935.01 -1085,-2568.65 -105.73,-535.11 -132.59,-1082.16 46.59,-1481.29 107.58,-239.64 223.45,-353.02 363.29,-429.04 280.66,-152.59 278.66,-14.32 203.68,-388.33 -154.34,-769.65 -259.99,-1208.19 -259.99,-2044.36 0,-3345.82 3441.04,-6380.83 6680.18,-6545.99 1340.63,-68.36 2711.45,319.5 3954.42,1320.56 483.52,389.41 640.44,617.46 750.35,777.23 233.61,339.5 852.67,393.25 1274.15,856.99 1300.85,1431.25 1004.36,3646.37 661.94,5580.79 -73.45,414.94 -114,331.37 144.86,440.29 593.25,249.62 570.83,880.86 532.73,1428.19 -47.73,686.12 -457.24,1996.31 -781.58,2604.84 -221.62,415.89 -283.54,377.03 -571.34,650.86 -59.05,56.18 -902.89,2459.48 -1792.97,3439.3l-0.97 663.96c753.17,686.48 1484.81,1517.63 2100.56,2332.56l4319.54 1693.42c305.7,119.43 124.11,584.3 -181.64,464.84l-3617.26 -1418.1c194.53,301.44 356.55,590.01 469.4,850.22 326.28,752.37 318.02,762.04 -87.53,1236.04 -326.92,381.94 -649.33,768.98 -973.58,1153.32 -239.96,284.41 -578.97,370.39 -928.56,248.45 -339.73,-118.53 -361.23,-124.15 -527.92,160.88l-601.8 1029.11c-191.81,328.02 -604.89,465.63 -1133.54,641.75 -730.25,243.28 -1757.7,581.48 -2462.96,1585.28 -201.83,287.27 -203.78,261.22 -203.78,705.46zm-4316.05 -10006.85c-456.79,450.13 -992.12,1039.87 -1473.28,1644.86 -507.47,638.07 -951.7,1288.04 -1173.29,1798.96 -202.48,466.91 -198.25,471.87 9.4,714.56 327.53,382.74 650.65,770.2 975.53,1155.28 106.08,125.74 229.63,153.72 383.64,100.01 392.63,-136.97 795.48,-178.17 1032.01,226.32l691.45 1182.41c97.67,167.03 432.12,278.46 860.12,421.05 707.79,235.8 1634.91,544.76 2417.49,1405.81 -263.95,-941.35 -1014.52,-1747.23 -1761.49,-2549.03 -961.41,-1031.98 -1917.06,-2057.79 -1957.68,-3418.43l-3.9 -2681.8zm8144.11 11.84l-3.92 2669.96c-40.62,1360.64 -996.27,2386.45 -1957.68,3418.43 -742.02,796.48 -1487.69,1596.95 -1756.28,2530.27 778.94,-846.77 1697.68,-1152.97 2400.3,-1387.05 428,-142.59 762.45,-254.02 860.12,-421.05l574.15 -981.83c307.39,-525.63 521.1,-646.06 1149.31,-426.9 154,53.72 277.57,25.72 383.64,-100.01 324.88,-385.08 648.01,-772.54 975.54,-1155.28 207.65,-242.7 211.87,-247.65 9.39,-714.56 -474.59,-1094.33 -1833.52,-2640.73 -2634.57,-3431.98zm-4072.07 8109.44c358.76,-872.44 1053.43,-1618.3 1745.23,-2360.89 897.66,-963.55 1789.93,-1921.32 1824.88,-3092.27l5.17 -3515.54c-2110.68,1868.83 -5041.05,1913.61 -7150.48,17.64l5.09 3497.9c34.96,1170.95 927.23,2128.72 1824.89,3092.27 691.8,742.59 1386.46,1488.45 1745.22,2360.89zm5185.83 -19880.34c305.7,119.43 124.11,584.3 -181.64,464.84 -727.45,-285.22 -1426.58,-782.72 -1908.05,-1400.7 -201.42,-257.87 191.16,-564.51 392.58,-306.64 425.76,546.47 1054.11,990.4 1697.11,1242.5zm-9917.33 926.74c19.27,327.55 -478.77,356.85 -498.04,29.3 -161.18,-2663.95 2870.72,-2673.04 4784.06,-2657.11 1665,13.86 2980.49,-328.72 4034.71,-1740.7 196.52,-263.33 596.93,35.48 400.4,298.82 -1150.82,1541.35 -2610.47,1955.07 -4439.01,1939.92 -1561.75,-13.01 -4416.31,-88.19 -4282.12,2129.77zm10747 1054.11c313.76,-1875.61 680.36,-4067.12 -504.23,-5370.46 -434.17,-477.7 -943.78,-369.98 -1315.17,-909.73 -92.86,-134.98 -225.44,-327.66 -652.69,-671.75 -1139.61,-917.81 -2392.95,-1273.59 -3616.52,-1211.2 -2974.25,151.65 -6205.58,2969.96 -6205.58,6047.95 0,941.36 174.27,1408.41 304.1,2259.75 67.28,441.42 117.48,376.13 -321.49,534.88 -149.39,54.06 -254.56,92.13 -334.51,270.22 -129.43,288.3 -100.23,733.02 -11.43,1182.47 87.76,444.22 552.13,2046.88 862.34,2244.43 394.93,251.5 473.56,474.78 583.02,910.23 65.96,262.39 153.64,611.21 349.38,1039.83 342.19,749.33 781.84,1392.12 1288.18,1916.17 2065.87,2138.08 5242.28,2299.54 7442.36,-345.39 768.59,-924 1431.48,-3061.75 1640,-3260.15 239.01,-227.39 302.09,-198.24 475.64,-523.92 289.28,-542.76 680.46,-1792.08 723,-2403.66 40.1,-575.91 111.29,-792.81 -423.44,-1027.25 -483.59,-212.04 -383.11,-83.6 -282.96,-682.42zm7975.51 -1009.4c538.58,538.54 538.55,1422.48 0,1961.03 -538.54,538.58 -1422.48,538.55 -1961.03,0 -195.74,-195.74 -333.23,-449.72 -384.26,-733.71l-1693.3 0c-328.84,0 -328.84,-500 0,-500l1694.48 0c51.92,-281.41 188.81,-533.06 383.08,-727.32 538.55,-538.55 1422.49,-538.58 1961.03,0zm-353.52 353.52c-344.33,-344.35 -909.65,-344.34 -1253.99,0 -344.35,344.33 -344.34,909.65 0,1253.99 344.34,344.34 909.66,344.35 1253.99,0 344.34,-344.34 344.35,-909.66 0,-1253.99zm353.52 21378.47c538.55,538.55 538.58,1422.49 0,1961.03 -538.54,538.58 -1422.48,538.55 -1961.03,0 -195.75,-195.73 -333.24,-449.72 -384.26,-733.71l-1601.96 0c-328.84,0 -328.84,-500 0,-500l1603.14 0c51.93,-281.4 188.82,-533.06 383.08,-727.32 538.55,-538.55 1422.49,-538.58 1961.03,0zm-353.52 353.52c-344.33,-344.35 -909.65,-344.34 -1253.99,0 -344.34,344.34 -344.35,909.66 0,1253.99 344.34,344.34 909.66,344.35 1253.99,0 344.35,-344.33 344.34,-909.65 0,-1253.99zm5912.41 -0.5c538.55,538.55 538.58,1422.49 0,1961.03 -538.56,538.56 -1422.47,538.56 -1961.03,0 -420.77,-420.74 -525.86,-1067.64 -261.18,-1598.45l-3351.99 -3082.72 -1353.98 0c-328.84,0 -328.84,-500 0,-500l1547.45 0 3459.68 3181.75c543.62,-502.08 1397.52,-485.14 1921.05,38.39zm-353.52 353.52c-475.8,-458.16 -1080.26,-279.84 -1365.99,121.19 -222.43,312.19 -247.44,773.39 112,1132.8 344.34,344.34 909.65,344.34 1253.99,0 344.35,-344.33 344.34,-909.65 0,-1253.99zm4189.15 -5410.31c538.55,538.55 538.58,1422.49 0,1961.03 -538.56,538.56 -1422.47,538.56 -1961.03,0 -194.09,-194.07 -330.89,-445.42 -382.93,-726.5l-2575.02 7.34 -2632.14 -2540.85 -1673.24 0c-328.84,0 -328.84,-500 0,-500l1873.26 0 2633.59 2542.24 2371.72 -6.76c50.62,-285.12 188.38,-540.12 384.76,-736.5 538.54,-538.58 1422.48,-538.55 1961.03,0zm-353.52 353.52c-344.34,-344.34 -909.66,-344.35 -1253.99,0 -344.34,344.34 -344.35,909.66 0,1253.99 344.34,344.34 909.65,344.34 1253.99,0 344.35,-344.33 344.34,-909.65 0,-1253.99zm-3475.33 -6523.72c538.58,538.54 538.55,1422.48 0,1961.03 -538.55,538.55 -1422.49,538.58 -1961.03,0 -196.08,-196.08 -333.72,-450.61 -384.53,-735.19l-2602.44 0c-328.84,0 -328.84,-500 0,-500l2604.16 0c52.14,-280.8 188.88,-531.91 382.81,-725.84 538.56,-538.56 1422.47,-538.56 1961.03,0zm-353.52 353.52c-344.34,-344.34 -909.65,-344.34 -1253.99,0 -344.34,344.34 -344.34,909.65 0,1253.99 344.33,344.35 909.65,344.34 1253.99,0 344.34,-344.34 344.35,-909.66 0,-1253.99zm4182.37 -6519.83c538.55,538.55 538.58,1422.49 0,1961.03 -538.56,538.56 -1422.47,538.56 -1961.03,0 -194.53,-194.53 -331.52,-446.59 -383.29,-728.45l-2367.02 -6.77 -2603.14 2542.24 -1909.87 0c-328.84,0 -328.84,-500 0,-500l1708.21 0 2601.72 -2540.86 2568.98 7.34c50.9,-284.33 188.48,-538.6 384.41,-734.53 538.54,-538.58 1422.48,-538.55 1961.03,0zm-353.52 353.52c-344.34,-344.34 -909.66,-344.35 -1253.99,0 -344.34,344.34 -344.34,909.65 0,1253.99 344.34,344.34 909.65,344.34 1253.99,0 344.35,-344.33 344.34,-909.65 0,-1253.99zm-3484.14 -5316.64c538.56,538.56 538.56,1422.47 0,1961.03 -518.77,518.81 -1363.29,540.84 -1908.11,50.19l-3484.01 3090.02 -1417.68 0c-328.84,0 -328.84,-500 0,-500l1230.75 0 3365.79 -2985.17c-275.61,-533.44 -173.65,-1190.19 252.23,-1616.07 538.55,-538.55 1422.49,-538.58 1961.03,0zm-353.52 353.52c-344.33,-344.35 -909.65,-344.34 -1253.99,0 -346.14,346.14 -345.99,914.64 9.5,1253.9 324.05,309.27 871.18,373.43 1244.49,0.09 344.34,-344.34 344.34,-909.65 0,-1253.99zm-32782.76 271.41c-344.35,344.33 -344.34,909.65 0,1253.99 344.33,344.35 909.65,344.34 1253.99,0 344.34,-344.34 344.35,-909.66 0,-1253.99 -344.34,-344.34 -909.66,-344.35 -1253.99,0zm-353.52 -353.52c538.54,-538.58 1422.48,-538.55 1961.03,0 194.27,194.26 331.16,445.91 383.08,727.32l1694.48 0c328.84,0 328.84,500 0,500l-1693.3 0c-51.03,283.99 -188.52,537.97 -384.26,733.71 -538.55,538.55 -1422.49,538.58 -1961.03,0 -538.55,-538.55 -538.58,-1422.49 0,-1961.03zm353.52 22085.51c-344.34,344.34 -344.35,909.66 0,1253.99 344.33,344.35 909.65,344.34 1253.99,0 344.35,-344.33 344.34,-909.65 0,-1253.99 -344.34,-344.34 -909.66,-344.35 -1253.99,0zm-353.52 -353.52c538.54,-538.58 1422.48,-538.55 1961.03,0 194.26,194.26 331.15,445.92 383.08,727.32l1603.14 0c328.84,0 328.84,500 0,500l-1601.96 0c-51.02,283.99 -188.51,537.98 -384.26,733.71 -538.55,538.55 -1422.49,538.58 -1961.03,0 -538.58,-538.54 -538.55,-1422.48 0,-1961.03zm-5205.37 706.54c-344.34,344.34 -344.35,909.66 0,1253.99 344.34,344.34 909.65,344.34 1253.99,0 386.25,-386.22 302.12,-900.03 71.52,-1173.23 -325.98,-416.24 -949.9,-456.37 -1325.51,-80.76zm-353.52 -353.52c523.53,-523.53 1377.43,-540.47 1921.05,-38.39l3459.68 -3181.75 1573.62 0c328.84,0 328.84,500 0,500l-1380.15 0 -3351.99 3082.72c264.68,530.81 159.59,1177.71 -261.18,1598.45 -538.56,538.56 -1422.47,538.56 -1961.03,0 -538.58,-538.54 -538.55,-1422.48 0,-1961.03zm-3482.11 -4703.27c-344.34,344.34 -344.35,909.66 0,1253.99 344.34,344.34 909.65,344.34 1253.99,0 344.35,-344.33 344.34,-909.65 0,-1253.99 -344.33,-344.35 -909.65,-344.34 -1253.99,0zm-353.52 -353.52c538.55,-538.55 1422.49,-538.58 1961.03,0 196.38,196.38 334.14,451.38 384.76,736.5l2371.72 6.76 2633.59 -2542.24 1935.23 0c328.84,0 328.84,500 0,500l-1735.21 0 -2632.14 2540.85 -2575.02 -7.34c-52.04,281.08 -188.84,532.43 -382.93,726.5 -538.56,538.56 -1422.47,538.56 -1961.03,0 -538.58,-538.54 -538.55,-1422.48 0,-1961.03zm4182.37 -5816.68c-344.35,344.33 -344.34,909.65 0,1253.99 344.34,344.34 909.66,344.35 1253.99,0 344.34,-344.34 344.34,-909.65 0,-1253.99 -344.34,-344.34 -909.65,-344.34 -1253.99,0zm-353.52 -353.52c538.56,-538.56 1422.47,-538.56 1961.03,0 193.93,193.93 330.67,445.04 382.81,725.84l2648.23 0c328.84,0 328.84,500 0,500l-2646.51 0c-50.81,284.58 -188.45,539.11 -384.53,735.19 -538.54,538.58 -1422.48,538.55 -1961.03,0 -538.55,-538.55 -538.58,-1422.49 0,-1961.03zm-3475.33 -5812.79c-344.34,344.34 -344.35,909.66 0,1253.99 344.34,344.34 909.65,344.34 1253.99,0 344.34,-344.34 344.34,-909.65 0,-1253.99 -344.33,-344.35 -909.65,-344.34 -1253.99,0zm-353.52 -353.52c538.55,-538.55 1422.49,-538.58 1961.03,0 195.93,195.93 333.51,450.2 384.41,734.53l2568.98 -7.34 2601.72 2540.86 1734.4 0c328.84,0 328.84,500 0,500l-1936.06 0 -2603.14 -2542.24 -2367.02 6.77c-51.77,281.86 -188.76,533.92 -383.29,728.45 -538.56,538.56 -1422.47,538.56 -1961.03,0 -538.58,-538.54 -538.55,-1422.48 0,-1961.03zm4191.18 -4609.6c-344.34,344.34 -344.34,909.65 0,1253.99 402.82,402.85 961.74,316.08 1268.1,15.31 323.68,-317.77 400.38,-854.81 -14.11,-1269.3 -344.34,-344.34 -909.66,-344.35 -1253.99,0zm-353.52 -353.52c538.54,-538.58 1422.48,-538.55 1961.03,0 425.88,425.88 527.84,1082.63 252.23,1616.07l3365.79 2985.17 1247.97 0c328.84,0 328.84,500 0,500l-1434.9 0 -3484.01 -3090.02c-544.82,490.65 -1389.34,468.62 -1908.11,-50.19 -538.56,-538.56 -538.56,-1422.47 0,-1961.03z"/>
 </g>
</svg>
